<mxfile host="app.diagrams.net" modified="2022-12-13T16:29:55.682Z" agent="5.0 (X11)" version="20.6.0" etag="sxqX-wxxhXle1uH9kJHu" type="github">
  <diagram id="u8R9QNCznZn25XMOLj8T" name="Page-1">
    <mxGraphModel dx="1800" dy="2157" grid="1" gridSize="10" guides="1" tooltips="1" connect="1" arrows="1" fold="1" page="1" pageScale="1" pageWidth="850" pageHeight="1100" math="0" shadow="0">
      <root>
        <mxCell id="0" />
        <mxCell id="1" parent="0" />
        <mxCell id="k6QddJMB9UaT1ctJLDSK-1" value="" style="whiteSpace=wrap;html=1;aspect=fixed;" vertex="1" parent="1">
          <mxGeometry x="120" y="-230" width="970" height="970" as="geometry" />
        </mxCell>
        <mxCell id="k6QddJMB9UaT1ctJLDSK-2" value="Utilisateur " style="shape=umlActor;verticalLabelPosition=bottom;verticalAlign=top;html=1;outlineConnect=0;" vertex="1" parent="1">
          <mxGeometry x="40" y="140" width="30" height="60" as="geometry" />
        </mxCell>
        <mxCell id="k6QddJMB9UaT1ctJLDSK-5" value="Générateur diagramme de classe" style="rounded=0;whiteSpace=wrap;html=1;" vertex="1" parent="1">
          <mxGeometry x="160" y="-250" width="230" height="40" as="geometry" />
        </mxCell>
        <mxCell id="k6QddJMB9UaT1ctJLDSK-9" value="générer une classe" style="rounded=0;whiteSpace=wrap;html=1;" vertex="1" parent="1">
          <mxGeometry x="200" y="150" width="120" height="60" as="geometry" />
        </mxCell>
        <mxCell id="k6QddJMB9UaT1ctJLDSK-10" value="générer les relations " style="rounded=0;whiteSpace=wrap;html=1;" vertex="1" parent="1">
          <mxGeometry x="190" y="360" width="120" height="60" as="geometry" />
        </mxCell>
        <mxCell id="k6QddJMB9UaT1ctJLDSK-11" value="drag and drop les classes" style="rounded=0;whiteSpace=wrap;html=1;" vertex="1" parent="1">
          <mxGeometry x="190" y="570" width="120" height="60" as="geometry" />
        </mxCell>
        <mxCell id="k6QddJMB9UaT1ctJLDSK-13" value="exporter des diagrammes de classe" style="rounded=0;whiteSpace=wrap;html=1;" vertex="1" parent="1">
          <mxGeometry x="450" y="-110" width="120" height="60" as="geometry" />
        </mxCell>
        <mxCell id="k6QddJMB9UaT1ctJLDSK-27" value="générer classe concrète " style="rounded=0;whiteSpace=wrap;html=1;" vertex="1" parent="1">
          <mxGeometry x="450" y="150" width="120" height="40" as="geometry" />
        </mxCell>
        <mxCell id="k6QddJMB9UaT1ctJLDSK-32" value="" style="endArrow=block;dashed=1;endFill=0;endSize=12;html=1;rounded=0;exitX=0;exitY=0.5;exitDx=0;exitDy=0;entryX=1;entryY=0.5;entryDx=0;entryDy=0;" edge="1" parent="1" source="k6QddJMB9UaT1ctJLDSK-27" target="k6QddJMB9UaT1ctJLDSK-9">
          <mxGeometry width="160" relative="1" as="geometry">
            <mxPoint x="480" y="190" as="sourcePoint" />
            <mxPoint x="320" y="190" as="targetPoint" />
          </mxGeometry>
        </mxCell>
        <mxCell id="k6QddJMB9UaT1ctJLDSK-35" value="" style="endArrow=block;dashed=1;endFill=0;endSize=12;html=1;rounded=0;entryX=1;entryY=1;entryDx=0;entryDy=0;" edge="1" parent="1" target="k6QddJMB9UaT1ctJLDSK-9">
          <mxGeometry width="160" relative="1" as="geometry">
            <mxPoint x="460" y="240" as="sourcePoint" />
            <mxPoint x="340" y="240" as="targetPoint" />
          </mxGeometry>
        </mxCell>
        <mxCell id="k6QddJMB9UaT1ctJLDSK-36" value="générer interface" style="rounded=0;whiteSpace=wrap;html=1;" vertex="1" parent="1">
          <mxGeometry x="450" y="220" width="120" height="40" as="geometry" />
        </mxCell>
        <mxCell id="k6QddJMB9UaT1ctJLDSK-37" value="générer classe abstraite" style="rounded=0;whiteSpace=wrap;html=1;" vertex="1" parent="1">
          <mxGeometry x="450" y="80" width="120" height="40" as="geometry" />
        </mxCell>
        <mxCell id="k6QddJMB9UaT1ctJLDSK-38" value="" style="endArrow=block;dashed=1;endFill=0;endSize=12;html=1;rounded=0;exitX=0;exitY=0.5;exitDx=0;exitDy=0;entryX=0.992;entryY=0.117;entryDx=0;entryDy=0;entryPerimeter=0;" edge="1" parent="1" target="k6QddJMB9UaT1ctJLDSK-9">
          <mxGeometry width="160" relative="1" as="geometry">
            <mxPoint x="450" y="100" as="sourcePoint" />
            <mxPoint x="320" y="100" as="targetPoint" />
          </mxGeometry>
        </mxCell>
        <mxCell id="k6QddJMB9UaT1ctJLDSK-43" value="" style="endArrow=block;dashed=1;endFill=0;endSize=12;html=1;rounded=0;entryX=1;entryY=1;entryDx=0;entryDy=0;" edge="1" parent="1">
          <mxGeometry width="160" relative="1" as="geometry">
            <mxPoint x="450" y="440" as="sourcePoint" />
            <mxPoint x="310" y="410" as="targetPoint" />
          </mxGeometry>
        </mxCell>
        <mxCell id="k6QddJMB9UaT1ctJLDSK-44" value="générer les implémentations" style="rounded=0;whiteSpace=wrap;html=1;" vertex="1" parent="1">
          <mxGeometry x="450" y="420" width="120" height="35" as="geometry" />
        </mxCell>
        <mxCell id="k6QddJMB9UaT1ctJLDSK-45" value="générer les héritages" style="rounded=0;whiteSpace=wrap;html=1;" vertex="1" parent="1">
          <mxGeometry x="450" y="360" width="120" height="40" as="geometry" />
        </mxCell>
        <mxCell id="k6QddJMB9UaT1ctJLDSK-46" value="" style="endArrow=block;dashed=1;endFill=0;endSize=12;html=1;rounded=0;exitX=0;exitY=0.75;exitDx=0;exitDy=0;entryX=1;entryY=0.5;entryDx=0;entryDy=0;" edge="1" parent="1" source="k6QddJMB9UaT1ctJLDSK-45">
          <mxGeometry width="160" relative="1" as="geometry">
            <mxPoint x="440" y="385" as="sourcePoint" />
            <mxPoint x="310" y="395" as="targetPoint" />
          </mxGeometry>
        </mxCell>
        <mxCell id="k6QddJMB9UaT1ctJLDSK-47" value="" style="endArrow=block;dashed=1;endFill=0;endSize=12;html=1;rounded=0;entryX=0.992;entryY=0.117;entryDx=0;entryDy=0;entryPerimeter=0;" edge="1" parent="1">
          <mxGeometry width="160" relative="1" as="geometry">
            <mxPoint x="450" y="320" as="sourcePoint" />
            <mxPoint x="309.99999999999994" y="377.02" as="targetPoint" />
          </mxGeometry>
        </mxCell>
        <mxCell id="k6QddJMB9UaT1ctJLDSK-48" value="générer les associations" style="rounded=0;whiteSpace=wrap;html=1;" vertex="1" parent="1">
          <mxGeometry x="450" y="300" width="120" height="40" as="geometry" />
        </mxCell>
        <mxCell id="k6QddJMB9UaT1ctJLDSK-49" value="ajouter une classe" style="rounded=0;whiteSpace=wrap;html=1;" vertex="1" parent="1">
          <mxGeometry x="200" y="30" width="120" height="60" as="geometry" />
        </mxCell>
        <mxCell id="k6QddJMB9UaT1ctJLDSK-50" value="supprimer une classe" style="rounded=0;whiteSpace=wrap;html=1;" vertex="1" parent="1">
          <mxGeometry x="200" y="-90" width="120" height="60" as="geometry" />
        </mxCell>
        <mxCell id="k6QddJMB9UaT1ctJLDSK-52" value="" style="endArrow=classic;html=1;rounded=0;entryX=0;entryY=0.5;entryDx=0;entryDy=0;" edge="1" parent="1" target="k6QddJMB9UaT1ctJLDSK-49">
          <mxGeometry width="50" height="50" relative="1" as="geometry">
            <mxPoint x="80" y="160" as="sourcePoint" />
            <mxPoint x="450" y="-70" as="targetPoint" />
          </mxGeometry>
        </mxCell>
        <mxCell id="k6QddJMB9UaT1ctJLDSK-53" value="" style="endArrow=classic;html=1;rounded=0;" edge="1" parent="1">
          <mxGeometry width="50" height="50" relative="1" as="geometry">
            <mxPoint x="90" y="190" as="sourcePoint" />
            <mxPoint x="190" y="280" as="targetPoint" />
          </mxGeometry>
        </mxCell>
        <mxCell id="k6QddJMB9UaT1ctJLDSK-54" value="afficher les relations" style="rounded=0;whiteSpace=wrap;html=1;" vertex="1" parent="1">
          <mxGeometry x="190" y="260" width="120" height="60" as="geometry" />
        </mxCell>
        <mxCell id="k6QddJMB9UaT1ctJLDSK-55" value="Use" style="endArrow=open;endSize=12;dashed=1;html=1;rounded=0;exitX=0.5;exitY=1;exitDx=0;exitDy=0;" edge="1" parent="1" source="k6QddJMB9UaT1ctJLDSK-54" target="k6QddJMB9UaT1ctJLDSK-10">
          <mxGeometry width="160" relative="1" as="geometry">
            <mxPoint x="360" y="230" as="sourcePoint" />
            <mxPoint x="200" y="230" as="targetPoint" />
          </mxGeometry>
        </mxCell>
        <object label="Use" id="k6QddJMB9UaT1ctJLDSK-57">
          <mxCell style="endArrow=open;endSize=12;dashed=1;html=1;rounded=0;exitX=0.5;exitY=1;exitDx=0;exitDy=0;entryX=0.5;entryY=0;entryDx=0;entryDy=0;" edge="1" parent="1" source="k6QddJMB9UaT1ctJLDSK-49" target="k6QddJMB9UaT1ctJLDSK-9">
            <mxGeometry width="160" relative="1" as="geometry">
              <mxPoint x="260" y="330" as="sourcePoint" />
              <mxPoint x="260" y="370" as="targetPoint" />
            </mxGeometry>
          </mxCell>
        </object>
        <mxCell id="k6QddJMB9UaT1ctJLDSK-58" value="" style="endArrow=classic;html=1;rounded=0;entryX=0;entryY=0.75;entryDx=0;entryDy=0;" edge="1" parent="1" target="k6QddJMB9UaT1ctJLDSK-50">
          <mxGeometry width="50" height="50" relative="1" as="geometry">
            <mxPoint x="70" y="130" as="sourcePoint" />
            <mxPoint x="210" y="70" as="targetPoint" />
          </mxGeometry>
        </mxCell>
        <mxCell id="k6QddJMB9UaT1ctJLDSK-59" value="supprimer les relations" style="rounded=0;whiteSpace=wrap;html=1;" vertex="1" parent="1">
          <mxGeometry x="190" y="470" width="120" height="60" as="geometry" />
        </mxCell>
        <mxCell id="k6QddJMB9UaT1ctJLDSK-60" value="" style="endArrow=classic;html=1;rounded=0;entryX=0;entryY=0.5;entryDx=0;entryDy=0;" edge="1" parent="1" target="k6QddJMB9UaT1ctJLDSK-59">
          <mxGeometry width="50" height="50" relative="1" as="geometry">
            <mxPoint x="70" y="220" as="sourcePoint" />
            <mxPoint x="200" y="290" as="targetPoint" />
          </mxGeometry>
        </mxCell>
        <mxCell id="k6QddJMB9UaT1ctJLDSK-61" value="" style="endArrow=classic;html=1;rounded=0;" edge="1" parent="1">
          <mxGeometry width="50" height="50" relative="1" as="geometry">
            <mxPoint x="80" y="140" as="sourcePoint" />
            <mxPoint x="450" y="-80" as="targetPoint" />
            <Array as="points">
              <mxPoint x="200" y="10" />
              <mxPoint x="350" y="10" />
              <mxPoint x="350" y="-80" />
              <mxPoint x="410" y="-80" />
            </Array>
          </mxGeometry>
        </mxCell>
        <mxCell id="k6QddJMB9UaT1ctJLDSK-62" value="" style="endArrow=block;dashed=1;endFill=0;endSize=12;html=1;rounded=0;exitX=0;exitY=0.5;exitDx=0;exitDy=0;entryX=0.992;entryY=0.117;entryDx=0;entryDy=0;entryPerimeter=0;" edge="1" parent="1">
          <mxGeometry width="160" relative="1" as="geometry">
            <mxPoint x="700.96" y="-147.01999999999998" as="sourcePoint" />
            <mxPoint x="570" y="-90" as="targetPoint" />
          </mxGeometry>
        </mxCell>
        <mxCell id="k6QddJMB9UaT1ctJLDSK-63" value="exporter en forme img" style="rounded=0;whiteSpace=wrap;html=1;" vertex="1" parent="1">
          <mxGeometry x="700" y="-170" width="120" height="60" as="geometry" />
        </mxCell>
        <mxCell id="k6QddJMB9UaT1ctJLDSK-64" value="exporter en forme PlantUML" style="rounded=0;whiteSpace=wrap;html=1;" vertex="1" parent="1">
          <mxGeometry x="700" y="-90" width="120" height="60" as="geometry" />
        </mxCell>
        <mxCell id="k6QddJMB9UaT1ctJLDSK-65" value="" style="endArrow=block;dashed=1;endFill=0;endSize=12;html=1;rounded=0;exitX=0;exitY=0.5;exitDx=0;exitDy=0;entryX=1;entryY=0.5;entryDx=0;entryDy=0;" edge="1" parent="1">
          <mxGeometry width="160" relative="1" as="geometry">
            <mxPoint x="700" y="-80" as="sourcePoint" />
            <mxPoint x="570" y="-70" as="targetPoint" />
          </mxGeometry>
        </mxCell>
        <mxCell id="k6QddJMB9UaT1ctJLDSK-66" value="" style="endArrow=classic;html=1;rounded=0;entryX=0.017;entryY=0.383;entryDx=0;entryDy=0;entryPerimeter=0;" edge="1" parent="1" target="k6QddJMB9UaT1ctJLDSK-11">
          <mxGeometry width="50" height="50" relative="1" as="geometry">
            <mxPoint x="40" y="230" as="sourcePoint" />
            <mxPoint x="180" y="580" as="targetPoint" />
          </mxGeometry>
        </mxCell>
        <mxCell id="k6QddJMB9UaT1ctJLDSK-67" value="Modifier des classes" style="rounded=0;whiteSpace=wrap;html=1;" vertex="1" parent="1">
          <mxGeometry x="700" y="230" width="120" height="60" as="geometry" />
        </mxCell>
        <mxCell id="k6QddJMB9UaT1ctJLDSK-68" value="" style="endArrow=classic;html=1;rounded=0;" edge="1" parent="1">
          <mxGeometry width="50" height="50" relative="1" as="geometry">
            <mxPoint x="100" y="180" as="sourcePoint" />
            <mxPoint x="700" y="260" as="targetPoint" />
            <Array as="points">
              <mxPoint x="400" y="260" />
            </Array>
          </mxGeometry>
        </mxCell>
        <mxCell id="k6QddJMB9UaT1ctJLDSK-69" value="" style="endArrow=block;dashed=1;endFill=0;endSize=12;html=1;rounded=0;entryX=0.992;entryY=0.117;entryDx=0;entryDy=0;entryPerimeter=0;" edge="1" parent="1">
          <mxGeometry width="160" relative="1" as="geometry">
            <mxPoint x="890" y="220" as="sourcePoint" />
            <mxPoint x="820" y="257.02" as="targetPoint" />
          </mxGeometry>
        </mxCell>
        <mxCell id="k6QddJMB9UaT1ctJLDSK-70" value="" style="endArrow=block;dashed=1;endFill=0;endSize=12;html=1;rounded=0;entryX=0.992;entryY=0.117;entryDx=0;entryDy=0;entryPerimeter=0;" edge="1" parent="1">
          <mxGeometry width="160" relative="1" as="geometry">
            <mxPoint x="900" y="290" as="sourcePoint" />
            <mxPoint x="820" y="277.02" as="targetPoint" />
          </mxGeometry>
        </mxCell>
        <mxCell id="k6QddJMB9UaT1ctJLDSK-71" value="ajouter élément" style="rounded=0;whiteSpace=wrap;html=1;" vertex="1" parent="1">
          <mxGeometry x="890" y="210" width="120" height="30" as="geometry" />
        </mxCell>
        <mxCell id="k6QddJMB9UaT1ctJLDSK-72" value="supprimer élément" style="rounded=0;whiteSpace=wrap;html=1;" vertex="1" parent="1">
          <mxGeometry x="890" y="275" width="120" height="30" as="geometry" />
        </mxCell>
        <mxCell id="k6QddJMB9UaT1ctJLDSK-73" value="ajouter le constructeur" style="rounded=0;whiteSpace=wrap;html=1;" vertex="1" parent="1">
          <mxGeometry x="720" y="80" width="120" height="60" as="geometry" />
        </mxCell>
        <mxCell id="k6QddJMB9UaT1ctJLDSK-74" value="ajouter les methodes" style="rounded=0;whiteSpace=wrap;html=1;" vertex="1" parent="1">
          <mxGeometry x="850" y="10" width="120" height="60" as="geometry" />
        </mxCell>
        <mxCell id="k6QddJMB9UaT1ctJLDSK-75" value="ajouter les attributs" style="rounded=0;whiteSpace=wrap;html=1;" vertex="1" parent="1">
          <mxGeometry x="970" y="80" width="120" height="60" as="geometry" />
        </mxCell>
        <mxCell id="k6QddJMB9UaT1ctJLDSK-76" value="supprimer les attributs" style="rounded=0;whiteSpace=wrap;html=1;" vertex="1" parent="1">
          <mxGeometry x="720" y="400" width="120" height="60" as="geometry" />
        </mxCell>
        <mxCell id="k6QddJMB9UaT1ctJLDSK-77" value="supprimer le constructeur" style="rounded=0;whiteSpace=wrap;html=1;" vertex="1" parent="1">
          <mxGeometry x="850" y="500" width="120" height="60" as="geometry" />
        </mxCell>
        <mxCell id="k6QddJMB9UaT1ctJLDSK-78" value="supprimer les methodes" style="rounded=0;whiteSpace=wrap;html=1;" vertex="1" parent="1">
          <mxGeometry x="960" y="400" width="120" height="60" as="geometry" />
        </mxCell>
        <mxCell id="k6QddJMB9UaT1ctJLDSK-79" value="" style="endArrow=block;dashed=1;endFill=0;endSize=12;html=1;rounded=0;entryX=0.5;entryY=0;entryDx=0;entryDy=0;" edge="1" parent="1" target="k6QddJMB9UaT1ctJLDSK-71">
          <mxGeometry width="160" relative="1" as="geometry">
            <mxPoint x="1030" y="140" as="sourcePoint" />
            <mxPoint x="960" y="177.01999999999998" as="targetPoint" />
          </mxGeometry>
        </mxCell>
        <mxCell id="k6QddJMB9UaT1ctJLDSK-80" value="" style="endArrow=block;dashed=1;endFill=0;endSize=12;html=1;rounded=0;" edge="1" parent="1" target="k6QddJMB9UaT1ctJLDSK-71">
          <mxGeometry width="160" relative="1" as="geometry">
            <mxPoint x="910" y="70" as="sourcePoint" />
            <mxPoint x="830" y="140" as="targetPoint" />
          </mxGeometry>
        </mxCell>
        <mxCell id="k6QddJMB9UaT1ctJLDSK-81" value="" style="endArrow=block;dashed=1;endFill=0;endSize=12;html=1;rounded=0;exitX=0.5;exitY=1;exitDx=0;exitDy=0;entryX=0.417;entryY=-0.033;entryDx=0;entryDy=0;entryPerimeter=0;" edge="1" parent="1" source="k6QddJMB9UaT1ctJLDSK-73" target="k6QddJMB9UaT1ctJLDSK-71">
          <mxGeometry width="160" relative="1" as="geometry">
            <mxPoint x="920" y="80" as="sourcePoint" />
            <mxPoint x="956.1290322580644" y="220" as="targetPoint" />
          </mxGeometry>
        </mxCell>
        <mxCell id="k6QddJMB9UaT1ctJLDSK-82" value="" style="endArrow=block;dashed=1;endFill=0;endSize=12;html=1;rounded=0;entryX=0.992;entryY=0.117;entryDx=0;entryDy=0;entryPerimeter=0;exitX=0.5;exitY=0;exitDx=0;exitDy=0;" edge="1" parent="1" source="k6QddJMB9UaT1ctJLDSK-78">
          <mxGeometry width="160" relative="1" as="geometry">
            <mxPoint x="1030" y="320" as="sourcePoint" />
            <mxPoint x="950" y="307.02" as="targetPoint" />
          </mxGeometry>
        </mxCell>
        <mxCell id="k6QddJMB9UaT1ctJLDSK-83" value="" style="endArrow=block;dashed=1;endFill=0;endSize=12;html=1;rounded=0;exitX=0.5;exitY=0;exitDx=0;exitDy=0;" edge="1" parent="1" source="k6QddJMB9UaT1ctJLDSK-77">
          <mxGeometry width="160" relative="1" as="geometry">
            <mxPoint x="1030" y="410" as="sourcePoint" />
            <mxPoint x="940" y="300" as="targetPoint" />
          </mxGeometry>
        </mxCell>
        <mxCell id="k6QddJMB9UaT1ctJLDSK-84" value="" style="endArrow=block;dashed=1;endFill=0;endSize=12;html=1;rounded=0;exitX=0.5;exitY=0;exitDx=0;exitDy=0;" edge="1" parent="1" source="k6QddJMB9UaT1ctJLDSK-76">
          <mxGeometry width="160" relative="1" as="geometry">
            <mxPoint x="900" y="495" as="sourcePoint" />
            <mxPoint x="940" y="305" as="targetPoint" />
          </mxGeometry>
        </mxCell>
        <mxCell id="k6QddJMB9UaT1ctJLDSK-85" value="Use" style="endArrow=open;endSize=12;dashed=1;html=1;rounded=0;entryX=0.5;entryY=1;entryDx=0;entryDy=0;" edge="1" parent="1" target="k6QddJMB9UaT1ctJLDSK-9">
          <mxGeometry x="-0.0092" width="160" relative="1" as="geometry">
            <mxPoint x="310" y="570" as="sourcePoint" />
            <mxPoint x="470" y="570" as="targetPoint" />
            <Array as="points">
              <mxPoint x="350" y="530" />
              <mxPoint x="350" y="290" />
            </Array>
            <mxPoint as="offset" />
          </mxGeometry>
        </mxCell>
        <mxCell id="k6QddJMB9UaT1ctJLDSK-87" value="deplacer des classes" style="rounded=0;whiteSpace=wrap;html=1;" vertex="1" parent="1">
          <mxGeometry x="200" y="-180" width="120" height="60" as="geometry" />
        </mxCell>
        <mxCell id="k6QddJMB9UaT1ctJLDSK-88" value="" style="endArrow=classic;html=1;rounded=0;entryX=0;entryY=0.5;entryDx=0;entryDy=0;" edge="1" parent="1" target="k6QddJMB9UaT1ctJLDSK-87">
          <mxGeometry width="50" height="50" relative="1" as="geometry">
            <mxPoint x="60" y="110" as="sourcePoint" />
            <mxPoint x="80" y="100" as="targetPoint" />
          </mxGeometry>
        </mxCell>
      </root>
    </mxGraphModel>
  </diagram>
</mxfile>
